<svg xmlns="http://www.w3.org/2000/svg" width="116" height="32" fill="none">
  <g clip-path="url(#clip0)">
    <path fill-rule="evenodd" clip-rule="evenodd" d="M42.86 5.02a12.57 12.57 0 00-1.448-1.738 12.576 12.576 0 00-1.738-1.448A11.784 11.784 0 0035.041.097a11.151 11.151 0 00-9.509 3.185l-15.88 15.88a2.272 2.272 0 000 3.185 2.272 2.272 0 003.186 0L28.67 6.419a6.724 6.724 0 017.674-1.303c.675.29 1.303.724 1.882 1.303.531.58.965 1.207 1.303 1.883a6.724 6.724 0 01-1.303 7.674l-6.371 6.371c3.379.483 6.95-.58 9.557-3.186 2.606-2.558 3.668-6.13 3.185-9.508A11.511 11.511 0 0042.86 5.02zm-7.771 7.819a2.273 2.273 0 000-3.186c-.917-.869-2.317-.869-3.186 0l-15.88 15.88a6.724 6.724 0 01-7.673 1.303 6.012 6.012 0 01-1.883-1.303 8.217 8.217 0 01-1.303-1.883c-1.207-2.461-.772-5.599 1.303-7.674l6.371-6.323A11.151 11.151 0 003.33 12.84a11.247 11.247 0 00-3.186 9.556c.242 1.593.82 3.186 1.738 4.585.434.628.917 1.207 1.448 1.738.53.58 1.11 1.062 1.737 1.448 1.4.917 2.945 1.496 4.586 1.738 3.378.482 6.95-.58 9.508-3.186l15.928-15.88z" fill="url(#paint0_linear)"/>
  </g>
  <path d="M62.286 24.069c-1.585 0-2.918-.35-4-1.052A5.743 5.743 0 0156 20.114l2.697-1.577c.625 1.63 1.852 2.446 3.68 2.446.884 0 1.532-.16 1.943-.48.411-.32.617-.724.617-1.212 0-.563-.251-.998-.754-1.302-.503-.32-1.402-.663-2.697-1.029a17.661 17.661 0 01-1.829-.64 8.74 8.74 0 01-1.486-.846 3.626 3.626 0 01-1.12-1.371c-.259-.549-.388-1.189-.388-1.92 0-1.448.51-2.598 1.531-3.452 1.036-.868 2.278-1.302 3.726-1.302 1.295 0 2.43.32 3.406.96.99.624 1.76 1.5 2.308 2.628l-2.651 1.532c-.64-1.372-1.661-2.058-3.063-2.058-.655 0-1.173.153-1.554.458-.366.29-.549.67-.549 1.142 0 .503.206.915.617 1.235.427.304 1.235.64 2.423 1.005.488.153.854.275 1.097.366.26.076.602.206 1.029.389.442.167.777.327 1.006.48.243.152.518.358.822.617.305.259.534.526.686.8.168.274.305.61.412 1.006.121.38.182.8.182 1.257 0 1.478-.54 2.651-1.622 3.52-1.067.868-2.461 1.303-4.183 1.303zM76.214 15.154H73.63v4.755c0 .396.1.685.297.868.198.183.488.29.869.32.38.015.853.008 1.417-.023v2.675c-2.027.228-3.46.038-4.297-.572-.823-.61-1.234-1.699-1.234-3.268v-4.755h-1.99V12.32h1.99v-2.309l2.948-.891v3.2h2.583v2.834zM80.427 19.246c.396 1.432 1.47 2.148 3.223 2.148 1.128 0 1.981-.38 2.56-1.143l2.377 1.372c-1.127 1.63-2.788 2.446-4.983 2.446-1.89 0-3.405-.572-4.548-1.715-1.143-1.143-1.715-2.583-1.715-4.32 0-1.722.564-3.154 1.692-4.297C80.16 12.58 81.608 12 83.376 12c1.676 0 3.055.579 4.137 1.737 1.097 1.158 1.646 2.59 1.646 4.297 0 .381-.038.785-.115 1.212h-8.617zm-.046-2.286h5.829c-.168-.777-.518-1.356-1.051-1.737a2.931 2.931 0 00-1.783-.572c-.793 0-1.448.206-1.966.618-.518.396-.861.96-1.029 1.691zM98.76 12.32h2.948v11.429H98.76v-1.28c-.716 1.066-1.852 1.6-3.406 1.6-1.25 0-2.286-.42-3.108-1.258-.808-.838-1.212-1.996-1.212-3.474V12.32h2.949v6.651c0 .762.205 1.349.617 1.76.411.397.96.595 1.646.595.761 0 1.371-.236 1.828-.709.457-.472.686-1.18.686-2.126V12.32zM110.763 12c1.25 0 2.278.419 3.086 1.257.823.838 1.234 1.996 1.234 3.474v7.018h-2.948v-6.652c0-.762-.206-1.34-.617-1.737-.412-.411-.961-.617-1.646-.617-.762 0-1.372.236-1.829.708-.457.473-.686 1.181-.686 2.126v6.172h-2.948V12.32h2.948v1.28c.717-1.067 1.852-1.6 3.406-1.6z" fill="#fff"/>
  <defs>
    <linearGradient id="paint0_linear" x1=".031" y1="16" x2="44.71" y2="16" gradientUnits="userSpaceOnUse">
      <stop stop-color="#00D2FF"/>
      <stop offset="1" stop-color="#3A7BD5"/>
    </linearGradient>
    <clipPath id="clip0">
      <path fill="#fff" d="M0 0h44.694v32H0z"/>
    </clipPath>
  </defs>
</svg>
